 <svg viewBox="0 0 1440 133" fill="none" xmlns="http://www.w3.org/2000/svg">
                    <path
                        d="M0 93.8996L80 90.0116C160 85.8301 320 78.4942 480 90.0116C640 101.969 800 132.78 960 133C1120 132.78 1280 101.969 1360 86.0502L1440 70.4247V0H1360C1280 0 1120 0 960 0C800 0 640 0 480 0C320 0 160 0 80 0H0V93.8996Z"
                        fill="#FEB88C" />
                    <path
                        d="M0 80.4854L80 77.1528C160 73.5687 320 67.2807 480 77.1528C640 87.4021 800 113.811 960 114C1120 113.811 1280 87.4021 1360 73.7573L1440 60.364V0H1360C1280 0 1120 0 960 0C800 0 640 0 480 0C320 0 160 0 80 0H0V80.4854Z"
                        fill="#004AAD" />
                </svg>