<svg width="1536" height="360" viewBox="0 0 1536 360" fill="none" xmlns="http://www.w3.org/2000/svg">
<path d="M1536 53.2998L1450.67 58.5998C1365.33 64.2998 1194.67 74.2998 1024 58.5998C853.333 42.2998 682.667 0.299802 512 -0.000198364C341.333 0.299802 170.667 42.2998 85.3333 63.9998L-8.01086e-05 85.2998V181.3L85.3333 181.3C170.667 181.3 341.333 181.3 512 181.3C682.667 181.3 853.333 181.3 1024 181.3C1194.67 181.3 1365.33 181.3 1450.67 181.3H1536V53.2998Z" fill="#FEB88C"/>
<path d="M1536 69.4501L1450.67 74.0689C1365.33 79.0364 1194.67 87.7512 1024 74.0689C853.333 59.8638 682.667 23.2614 512 23C341.333 23.2614 170.667 59.8638 85.3333 78.775L-8.01086e-05 97.3376V181L85.3333 181C170.667 181 341.333 181 512 181C682.667 181 853.333 181 1024 181C1194.67 181 1365.33 181 1450.67 181H1536V69.4501Z" fill="#004AAD"/>
<path d="M0 306L85.3333 300.7C170.667 295 341.333 285 512 300.7C682.667 317 853.333 359 1024 359.3C1194.67 359 1365.33 317 1450.67 295.3L1536 274V178H1450.67C1365.33 178 1194.67 178 1024 178C853.333 178 682.667 178 512 178C341.333 178 170.667 178 85.3333 178H0L0 306Z" fill="#FEB88C"/>
<path d="M0 289.55L85.3333 284.931C170.667 279.964 341.333 271.249 512 284.931C682.667 299.136 853.333 335.739 1024 336C1194.67 335.739 1365.33 299.136 1450.67 280.225L1536 261.662V178H1450.67C1365.33 178 1194.67 178 1024 178C853.333 178 682.667 178 512 178C341.333 178 170.667 178 85.3333 178H0L0 289.55Z" fill="#004AAD"/>
</svg>
